<svg width="25" height="25" viewBox="0 0 25 25" fill="none" xmlns="http://www.w3.org/2000/svg">
<path d="M10.8528 0C4.86826 0 0 4.86826 0 10.8528C0 16.8374 4.86826 21.7056 10.8528 21.7056C12.7443 21.7056 14.5428 21.2095 16.0932 20.3413C16.1754 20.4828 16.2687 20.6176 16.3722 20.7444L19.473 23.9382C19.7594 24.2604 20.1085 24.5206 20.4991 24.703C20.8896 24.8853 21.3133 24.9859 21.7441 24.9986C22.1749 25.0113 22.6038 24.9358 23.0044 24.7767C23.405 24.6177 23.7689 24.3784 24.0736 24.0736C24.3784 23.7689 24.6177 23.405 24.7767 23.0044C24.9358 22.6038 25.0113 22.1749 24.9986 21.7441C24.9859 21.3133 24.8853 20.8896 24.703 20.4991C24.5206 20.1085 24.2604 19.7594 23.9382 19.473L20.7444 16.3722C20.6176 16.2687 20.4828 16.1754 20.3413 16.0932C21.1785 14.5428 21.7056 12.7443 21.7056 10.8528C21.7056 4.86826 16.8374 0 10.8528 0ZM10.8528 3.1008C15.1629 3.1008 18.6048 6.5427 18.6048 10.8528C18.6048 12.6823 17.9847 14.3877 16.9614 15.6901C16.9304 15.7211 16.8994 15.7521 16.8684 15.7831C16.8053 15.812 16.7433 15.843 16.6823 15.8761C16.3714 16.114 16.1084 16.4086 15.9071 16.7443C14.5428 17.8916 12.7753 18.5738 10.8528 18.5738C6.54269 18.5738 3.1008 15.1319 3.1008 10.8218C3.1008 6.51169 6.54269 3.0698 10.8528 3.0698V3.1008Z" fill="#4C4C4C"/>
</svg>
